<svg width="213" height="212" viewBox="0 0 213 212" fill="currentColor"
    xmlns="http://www.w3.org/2000/svg">
    <g opacity="0.2" clipPath="url(#clip0_16_3901)">
        <path d="M56.1857 163.692C42.0441 163.692 29.465 154.637 24.8973 141.157L24.5884 140.142C23.5111 136.572 23.0599 133.57 23.0599 130.566V70.338L1.62997 141.872C-1.1262 152.394 5.15444 163.302 15.6923 166.209L152.286 202.79C153.991 203.231 155.696 203.443 157.375 203.443C166.172 203.443 174.211 197.604 176.464 188.999L184.422 163.692H56.1857Z" />
        <path d="M80.4782 70.9397C90.2218 70.9397 98.1442 63.0157 98.1442 53.2721C98.1442 43.5284 90.2218 35.6044 80.4782 35.6044C70.7345 35.6044 62.8105 43.5284 62.8105 53.2721C62.8105 63.0157 70.7345 70.9397 80.4782 70.9397Z" />
        <path d="M190.897 9.10376H58.3939C46.2224 9.10376 36.3105 19.0156 36.3105 31.1887V128.357C36.3105 140.53 46.2224 150.442 58.3939 150.442H190.897C203.07 150.442 212.982 140.53 212.982 128.357V31.1887C212.982 19.0156 203.07 9.10376 190.897 9.10376ZM58.3939 26.7714H190.897C193.336 26.7714 195.314 28.7496 195.314 31.1887V93.8981L167.41 61.3368C164.45 57.8657 160.165 56.0104 155.563 55.9053C150.988 55.9312 146.695 57.9627 143.762 61.4791L110.954 100.858L100.265 90.1957C94.2241 84.1544 84.3915 84.1544 78.3583 90.1957L53.9782 114.568V31.1887C53.9782 28.7496 55.9564 26.7714 58.3939 26.7714Z" />
    </g>
    <defs>
        <clipPath id="clip0_16_3901">
            <rect width="212" height="212" fill="white" transform="translate(0.981445)" />
        </clipPath>
    </defs>
</svg>