<svg version="1.1"
    xmlns="http://www.w3.org/2000/svg"
    xmlns:xlink="http://www.w3.org/1999/xlink" x="0px" y="0px" viewBox="0 0 256 256" enable-background="new 0 0 256 256" xml:space="preserve" fill="currentColor">
    <g>
        <g>
            <path d="M210.6,49.5c-2.7-2.7-7.1-2.7-9.8,0L53.5,196.7c-2.7,2.7-2.7,7.1,0,9.8s7.1,2.7,9.8,0L210.6,59.3C213.3,56.6,213.3,52.2,210.6,49.5z M201.2,87.3c2.5-2.5,6.4-2.6,9.1-0.4c14.4,11.9,25.7,24.2,32.5,32c4.3,4.9,4.3,12.5,0,17.4c-17.1,20.1-62,68-114.8,68c-8.6,0-17-1.3-25.2-3.5c-2.4-0.7-4.3-2.6-5-5.1c-0.7-2.4,0.1-5.1,1.9-6.8c0,0,0,0,0,0c1.7-1.7,4.2-2.4,6.5-1.7c9.3,2.6,16.8,3.3,21.7,3.3c42.9,0,81.6-37.5,99.5-57.9c2.3-2.6,2.2-6.6-0.1-9.2c-8.9-10.1-17.5-18.5-25.7-25.4c-1.5-1.3-2.5-3.1-2.6-5.1C199,90.6,199.8,88.7,201.2,87.3L201.2,87.3L201.2,87.3z M58.4,171.2c-2.5,2.5-6.5,2.8-9.3,0.6c-16.2-12.8-28.7-26.5-35.8-34.9c-4.3-4.9-4.3-12.5,0-17.4c16.4-20.1,62-68,114.8-68c8.2,0,21,3.3,30.1,5.9c2.3,0.6,4,2.4,4.6,4.6c0.6,2.3,0,4.7-1.7,6.4c0,0,0,0,0,0c-1.8,1.8-4.4,2.4-6.8,1.6c-11.5-3.9-20.6-4.7-26.3-4.7c-42.9,0-81.5,37.5-99.5,57.9c-2.3,2.6-2.2,6.6,0.1,9.2c10.1,11.6,19.9,20.9,29.2,28.3c1.6,1.2,2.5,3.1,2.6,5C60.5,167.8,59.8,169.7,58.4,171.2C58.4,171.2,58.4,171.2,58.4,171.2L58.4,171.2z M168.8,119.6c0.5,2.6,0.8,5.4,0.8,8.2c0,23-18.7,41.6-41.6,41.6c-2.8,0-5.6-0.3-8.2-0.8l13.6-13.6c11-2.2,19.7-10.8,21.8-21.8L168.8,119.6L168.8,119.6z M88.5,141c-1.4-4.2-2.2-8.6-2.2-13.2c0-23,18.7-41.6,41.6-41.6c4.6,0,9,0.7,13.2,2.2l-11.8,11.8l-1.4-0.1c-15.3,0-27.8,12.4-27.8,27.8l0.1,1.4L88.5,141L88.5,141z"/>
        </g>
    </g>
</svg>