<svg width="20" height="20" viewBox="0 0 20 20" fill="currentColor"
    xmlns="http://www.w3.org/2000/svg">
    <path d="M17.7498 10.1914H14.8498C14.0332 10.1914 13.3082 10.6414 12.9415 11.3747L12.2415 12.7581C12.0748 13.0914 11.7415 13.2997 11.3748 13.2997H8.6415C8.38317 13.2997 8.0165 13.2414 7.77484 12.7581L7.07484 11.3831C6.70817 10.6581 5.97484 10.1997 5.1665 10.1997H2.24984C1.92484 10.1997 1.6665 10.4581 1.6665 10.7831V13.4997C1.6665 16.5247 3.48317 18.3331 6.5165 18.3331H13.4998C16.3582 18.3331 18.1165 16.7664 18.3332 13.9831V10.7747C18.3332 10.4581 18.0748 10.1914 17.7498 10.1914Z"/>
    <path d="M18.3332 6.50866V9.04199C18.1498 8.97533 17.9498 8.94199 17.7498 8.94199H14.8498C13.5582 8.94199 12.3998 9.65866 11.8248 10.8087L11.1998 12.042H8.8165L8.1915 10.817C7.6165 9.65866 6.45817 8.94199 5.1665 8.94199H2.24984C2.04984 8.94199 1.84984 8.97533 1.6665 9.04199V6.50866C1.6665 3.47533 3.47484 1.66699 6.50817 1.66699H13.4915C16.5248 1.66699 18.3332 3.47533 18.3332 6.50866Z"/>
</svg>
    